<?xml version="1.0" standalone="no"?><!DOCTYPE svg PUBLIC "-//W3C//DTD SVG 1.1//EN" "http://www.w3.org/Graphics/SVG/1.1/DTD/svg11.dtd"><svg t="1759392008582" class="icon" viewBox="0 0 1024 1024" version="1.1" xmlns="http://www.w3.org/2000/svg" p-id="4374" xmlns:xlink="http://www.w3.org/1999/xlink" width="200" height="200"><path d="M213.333333 533.333333c0 13.354667 19.669333 36.608 65.28 59.434667C337.664 622.293333 421.418667 640 512 640c90.581333 0 174.336-17.706667 233.386667-47.232 45.610667-22.826667 65.28-46.08 65.28-59.434667v-92.629333C740.266667 484.224 632.618667 512 512 512s-228.266667-27.818667-298.666667-71.296V533.333333z m597.333334 120.704C740.266667 697.557333 632.618667 725.333333 512 725.333333s-228.266667-27.818667-298.666667-71.296V746.666667c0 13.354667 19.669333 36.608 65.28 59.434666C337.664 835.626667 421.418667 853.333333 512 853.333333c90.581333 0 174.336-17.706667 233.386667-47.232 45.610667-22.826667 65.28-46.08 65.28-59.434666v-92.629334zM128 746.666667v-426.666667C128 213.973333 299.946667 128 512 128s384 85.973333 384 192v426.666667c0 106.026667-171.946667 192-384 192s-384-85.973333-384-192z m384-320c90.581333 0 174.336-17.706667 233.386667-47.232C790.954667 356.608 810.666667 333.354667 810.666667 320c0-13.354667-19.669333-36.608-65.28-59.434667C686.293333 231.04 602.581333 213.333333 512 213.333333c-90.581333 0-174.336 17.706667-233.386667 47.232C233.002667 283.392 213.333333 306.645333 213.333333 320c0 13.354667 19.669333 36.608 65.28 59.434667C337.664 408.96 421.418667 426.666667 512 426.666667z" fill="#000000" p-id="4375"></path></svg>