<?xml version="1.0" standalone="no"?><!DOCTYPE svg PUBLIC "-//W3C//DTD SVG 1.1//EN" "http://www.w3.org/Graphics/SVG/1.1/DTD/svg11.dtd"><svg t="1759648964616" class="icon" viewBox="0 0 1024 1024" version="1.1" xmlns="http://www.w3.org/2000/svg" p-id="12949" data-darkreader-inline-fill="" xmlns:xlink="http://www.w3.org/1999/xlink" width="200" height="200"><path d="M983.032318 92.16215H767.997539V10.236827c0-5.630255-4.606572-10.236827-10.236826-10.236827H686.082453c-5.630255 0-10.247063 4.606572-10.247064 10.236827v81.925323H348.164807V10.236827c0-5.630255-4.616809-10.236827-10.247063-10.236827h-71.67826c-5.630255 0-10.236827 4.606572-10.236826 10.236827v81.925323H40.967878c-22.654097 0-40.96778 18.303446-40.96778 40.957543v849.912527c0 22.654097 18.303446 40.96778 40.96778 40.96778h942.074677c22.654097 0 40.96778-18.303446 40.96778-40.96778V133.109456c-0.010237-22.654097-18.313683-40.947306-40.978017-40.947306z m-51.194369 839.665463H92.162248V445.435035h839.675701v486.392578zM92.162248 358.391299V184.314063h163.84041v61.441433c0 5.630255 4.606572 10.236827 10.236826 10.236826h71.67826c5.630255 0 10.247063-4.606572 10.247063-10.236826V184.314063h327.670582v61.441433c0 5.630255 4.616809 10.236827 10.247064 10.236826h71.67826c5.630255 0 10.236827-4.606572 10.236826-10.236826V184.314063h163.84041v174.077236H92.162248z m0 0" fill="#2c2c2c" p-id="12950" style="--darkreader-inline-fill: var(--darkreader-background-2c2c2c, #212425);" data-darkreader-inline-fill=""></path></svg>