<?xml version="1.0" standalone="no"?><!DOCTYPE svg PUBLIC "-//W3C//DTD SVG 1.1//EN" "http://www.w3.org/Graphics/SVG/1.1/DTD/svg11.dtd"><svg t="1759648887549" class="icon" viewBox="0 0 1024 1024" version="1.1" xmlns="http://www.w3.org/2000/svg" p-id="8151" data-darkreader-inline-fill="" xmlns:xlink="http://www.w3.org/1999/xlink" width="200" height="200"><path d="M135.314286 1016.685714c-62.171429 0-109.714286-47.542857-109.714286-109.714285v-270.628572c0-62.171429 47.542857-109.714286 109.714286-109.714286s109.714286 47.542857 109.714285 109.714286v270.628572c0 62.171429-51.2 109.714286-109.714285 109.714285zM515.657143 1016.685714c-62.171429 0-109.714286-47.542857-109.714286-109.714285V384c0-62.171429 47.542857-109.714286 109.714286-109.714286s109.714286 47.542857 109.714286 109.714286v522.971429c0 62.171429-51.2 109.714286-109.714286 109.714285zM896 1016.685714c-62.171429 0-109.714286-47.542857-109.714286-109.714285V128c0-62.171429 47.542857-109.714286 109.714286-109.714286s109.714286 47.542857 109.714286 109.714286v778.971429c0 62.171429-47.542857 109.714286-109.714286 109.714285z" fill="#2c2c2c" p-id="8152" style="--darkreader-inline-fill: var(--darkreader-background-2c2c2c, #212425);" data-darkreader-inline-fill=""></path></svg>