<?xml version="1.0" standalone="no"?><!DOCTYPE svg PUBLIC "-//W3C//DTD SVG 1.1//EN" "http://www.w3.org/Graphics/SVG/1.1/DTD/svg11.dtd"><svg t="1759648930014" class="icon" viewBox="0 0 1024 1024" version="1.1" xmlns="http://www.w3.org/2000/svg" p-id="10972" data-darkreader-inline-fill="" xmlns:xlink="http://www.w3.org/1999/xlink" width="200" height="200"><path d="M362.666667 320h298.666666V384h-298.666666V320zM661.333333 469.333333h-298.666666v64h298.666666V469.333333zM362.666667 618.666667h298.666666V682.666667h-298.666666v-64z" fill="#ffffff" p-id="10973" style="--darkreader-inline-fill: var(--darkreader-background-ffffff, #181a1b);" data-darkreader-inline-fill=""></path><path d="M725.333333 170.666667H298.666667a85.333333 85.333333 0 0 0-85.333334 85.333333v512a85.333333 85.333333 0 0 0 85.333334 85.333333h426.666666a85.333333 85.333333 0 0 0 85.333334-85.333333V256a85.333333 85.333333 0 0 0-85.333334-85.333333zM298.666667 234.666667h426.666666a21.333333 21.333333 0 0 1 21.333334 21.333333v512a21.333333 21.333333 0 0 1-21.333334 21.333333H298.666667a21.333333 21.333333 0 0 1-21.333334-21.333333V256a21.333333 21.333333 0 0 1 21.333334-21.333333z" fill="#ffffff" p-id="10974" style="--darkreader-inline-fill: var(--darkreader-background-ffffff, #181a1b);" data-darkreader-inline-fill=""></path></svg>