<?xml version="1.0" standalone="no"?><!DOCTYPE svg PUBLIC "-//W3C//DTD SVG 1.1//EN" "http://www.w3.org/Graphics/SVG/1.1/DTD/svg11.dtd"><svg t="1759391888440" class="icon" viewBox="0 0 1024 1024" version="1.1" xmlns="http://www.w3.org/2000/svg" p-id="984" xmlns:xlink="http://www.w3.org/1999/xlink" width="200" height="200"><path d="M190.08 202.624a32 32 0 0 1 33.877333 30.037333l25.813334 427.306667c3.328 55.338667 5.717333 94.592 10.496 125.013333 4.693333 29.866667 11.306667 48.042667 21.12 62.165334 10.965333 15.786667 25.173333 29.141333 41.557333 39.168 14.677333 8.96 33.237333 14.421333 63.36 17.322666 30.634667 2.944 69.973333 2.944 125.44 2.944 55.296 0 94.592 0 125.184-2.986666 30.08-2.858667 48.597333-8.32 63.232-17.28 16.426667-9.984 30.634667-23.296 41.642667-39.082667 9.813333-14.08 16.384-32.213333 21.12-62.08 4.821333-30.336 7.253333-69.546667 10.666666-124.8l26.453334-427.733333a32.042667 32.042667 0 0 1 63.914666 3.925333l-26.453333 427.733333c-3.328 54.016-5.973333 96.853333-11.392 130.944-5.461333 34.56-14.250667 63.402667-31.829333 88.618667-16.085333 23.04-36.821333 42.538667-60.842667 57.173333-26.24 15.957333-55.509333 22.954667-90.410667 26.325334-34.346667 3.285333-77.226667 3.242667-131.328 3.242666-54.186667 0-97.109333 0.042667-131.541333-3.242666-34.901333-3.370667-64.256-10.368-90.538667-26.368a202.666667 202.666667 0 0 1-60.8-57.301334c-17.536-25.258667-26.325333-54.101333-31.786666-88.746666-5.376-34.133333-7.893333-77.013333-11.178667-131.072L160.042667 236.501333a32 32 0 0 1 30.037333-33.877333z" fill="#101010" p-id="985"></path><path d="M513.450667 53.290667c21.632 0 39.936 0 55.082666 1.322666 15.744 1.408 30.421333 4.437333 44.672 11.861334 5.632 2.901333 11.050667 6.314667 16.128 10.112 12.885333 9.6 22.016 21.504 30.165334 35.029333 7.808 13.056 15.786667 29.525333 25.173333 48.981333l20.394667 42.026667H896a32 32 0 0 1 0 64H128a32 32 0 0 1 0-64h194.986667l17.365333-37.973333c9.173333-20.138667 16.896-37.205333 24.618667-50.773334 8.021333-13.994667 17.109333-26.325333 30.165333-36.352 5.12-3.925333 10.581333-7.424 16.341333-10.496 14.506667-7.68 29.482667-10.88 45.610667-12.373333 15.488-1.408 34.218667-1.365333 56.362667-1.365333z m0 64c-23.296 0-38.656 0-50.56 1.109333-11.349333 1.066667-17.109333 2.858667-21.376 5.12-2.602667 1.408-5.12 2.986667-7.424 4.778667-3.84 2.944-7.893333 7.466667-13.568 17.322666-5.930667 10.410667-12.330667 24.362667-21.973334 45.568l-5.205333 11.434667h240.64l-6.826667-14.122667c-9.941333-20.48-16.512-33.92-22.528-43.946666-5.717333-9.514667-9.728-13.824-13.525333-16.64a53.248 53.248 0 0 0-7.338667-4.608c-4.266667-2.218667-9.898667-3.925333-20.906666-4.949334-11.690667-1.024-26.666667-1.066667-49.408-1.066666zM373.333333 448a32 32 0 0 1 64 0v256a32 32 0 0 1-64 0v-256zM586.666667 704v-256a32 32 0 0 1 64 0v256a32 32 0 0 1-64 0z" fill="#101010" p-id="986"></path></svg>