<?xml version="1.0" standalone="no"?><!DOCTYPE svg PUBLIC "-//W3C//DTD SVG 1.1//EN" "http://www.w3.org/Graphics/SVG/1.1/DTD/svg11.dtd"><svg t="1759391957120" class="icon" viewBox="0 0 1024 1024" version="1.1" xmlns="http://www.w3.org/2000/svg" p-id="1137" xmlns:xlink="http://www.w3.org/1999/xlink" width="200" height="200"><path d="M760.064 394.666667c43.818667 0 80-0.085333 108.245333 3.754666 29.013333 3.925333 55.210667 12.672 75.093334 34.56 2.346667 2.56 4.565333 5.205333 6.656 7.936 17.834667 23.466667 21.674667 50.858667 20.352 80.128-1.28 28.501333-7.808 64.170667-15.658667 107.434667-11.392 62.805333-20.352 112.64-32.213333 151.509333-12.117333 39.637333-28.16 71.381333-55.893334 96.256a204.629333 204.629333 0 0 1-10.88 9.130667c-29.397333 22.869333-63.445333 33.066667-104.533333 37.930667-40.277333 4.736-90.794667 4.693333-154.453333 4.693333h-169.557334c-63.658667 0-114.176 0.042667-154.453333-4.693333-41.088-4.864-75.136-15.061333-104.533333-37.930667a204.928 204.928 0 0 1-10.922667-9.130667c-27.690667-24.874667-43.733333-56.618667-55.893333-96.256-11.818667-38.826667-20.778667-88.704-32.170667-151.466666-7.850667-43.306667-14.378667-78.933333-15.658667-107.52-1.28-29.226667 2.517333-56.576 20.352-80.085334 2.133333-2.730667 4.309333-5.418667 6.656-7.936 19.882667-21.888 46.08-30.634667 75.093334-34.56 28.245333-3.84 64.426667-3.754667 108.288-3.754666h496.085333z m-496.085333 64c-45.738667 0-76.757333 0.042667-99.626667 3.157333-22.144 2.986667-31.018667 8.277333-36.437333 14.208a53.034667 53.034667 0 0 0-2.986667 3.584c-4.906667 6.442667-8.448 16.170667-7.424 38.570667 1.024 23.168 6.528 53.76 14.72 98.901333 11.648 64.298667 19.925333 109.781333 30.421333 144.213333 10.282667 33.664 21.76 53.162667 37.461334 67.328 2.432 2.133333 4.906667 4.266667 7.424 6.229334 16.682667 13.013333 37.930667 20.778667 72.746666 24.874666 35.669333 4.266667 81.749333 4.266667 146.944 4.266667h169.557334c65.194667 0 111.274667 0 146.944-4.266667 34.816-4.096 56.064-11.861333 72.746666-24.874666 2.56-1.962667 4.992-4.096 7.424-6.229334 15.744-14.165333 27.178667-33.706667 37.461334-67.328 10.496-34.432 18.773333-79.914667 30.421333-144.213333 8.192-45.098667 13.653333-75.733333 14.72-98.901333 1.024-22.4-2.56-32.128-7.424-38.570667a53.546667 53.546667 0 0 0-2.986667-3.584c-5.418667-5.973333-14.293333-11.178667-36.437333-14.208-22.869333-3.114667-53.888-3.157333-99.584-3.157333H263.978667z" fill="#101010" p-id="1138"></path><path d="M139.776 426.666667V281.6c0-23.168-2.816-61.824 0.554667-95.402667 3.498667-34.688 14.08-74.88 47.786666-102.4 20.906667-17.066667 45.610667-24.064 73.472-27.306666 27.178667-3.2 61.397333-3.157333 103.253334-3.157334 17.621333 0 32.938667 0 45.653333 1.109334 13.312 1.194667 26.197333 3.84 38.826667 10.410666 18.602667 9.685333 30.805333 24.618667 39.381333 38.101334 8.106667 12.714667 15.061333 27.946667 19.754667 37.034666l23.68 46.08h142.293333c24.96 0 61.013333-2.133333 93.269333 2.944 33.877333 5.290667 70.058667 19.157333 94.805334 55.210667 7.765333 11.306667 12.074667 25.088 14.848 37.717333 2.858667 13.226667 4.608 28.032 5.717333 43.392 2.261333 30.634667 2.261333 66.730667 2.261333 101.333334a32 32 0 0 1-64 0c0-35.285333 0-68.821333-2.090666-96.64a255.701333 255.701333 0 0 0-4.437334-34.432c-2.133333-9.6-4.266667-13.909333-5.12-15.189334-11.093333-16.213333-27.818667-24.448-51.84-28.16-25.685333-4.053333-52.565333-2.133333-83.413333-2.133333H342.186667a32 32 0 0 1 0-64h117.930666l-8.618666-16.853333c-6.741333-13.184-10.837333-22.613333-16.810667-32-5.461333-8.576-10.24-13.226667-15.018667-15.658667-2.474667-1.28-6.272-2.602667-14.890666-3.413333a497.493333 497.493333 0 0 0-39.893334-0.853334c-43.477333 0-73.258667 0.085333-95.872 2.688-21.930667 2.56-32.853333 7.168-40.448 13.354667-13.994667 11.434667-21.674667 30.677333-24.533333 59.221333-2.986667 29.610667-0.256 58.026667-0.256 89.045334V426.666667a32 32 0 0 1-64 0z" fill="#101010" p-id="1139"></path></svg>