<?xml version="1.0" standalone="no"?><!DOCTYPE svg PUBLIC "-//W3C//DTD SVG 1.1//EN" "http://www.w3.org/Graphics/SVG/1.1/DTD/svg11.dtd"><svg t="1759565491493" class="icon" viewBox="0 0 1024 1024" version="1.1" xmlns="http://www.w3.org/2000/svg" p-id="4739" xmlns:xlink="http://www.w3.org/1999/xlink" width="200" height="200"><path d="M810.666667 426.666667h-42.666667V341.333333c0-145.066667-110.933333-256-256-256S256 196.266667 256 341.333333v85.333334H213.333333c-25.6 0-42.666667 17.066667-42.666666 42.666666v426.666667c0 25.6 17.066667 42.666667 42.666666 42.666667h597.333334c25.6 0 42.666667-17.066667 42.666666-42.666667V469.333333c0-25.6-17.066667-42.666667-42.666666-42.666666zM341.333333 341.333333c0-93.866667 76.8-170.666667 170.666667-170.666666s170.666667 76.8 170.666667 170.666666v85.333334H341.333333V341.333333z m426.666667 512H256v-341.333333h512v341.333333z" fill="#e6e6e6" p-id="4740"></path><path d="M512 597.333333c-25.6 0-42.666667 21.333333-42.666667 42.666667v85.333333c0 25.6 17.066667 42.666667 42.666667 42.666667s42.666667-17.066667 42.666667-42.666667v-85.333333c0-25.6-21.333333-42.666667-42.666667-42.666667z" fill="#e6e6e6" p-id="4741"></path></svg>