<?xml version="1.0" standalone="no"?><!DOCTYPE svg PUBLIC "-//W3C//DTD SVG 1.1//EN" "http://www.w3.org/Graphics/SVG/1.1/DTD/svg11.dtd"><svg t="1759647707799" class="icon" viewBox="0 0 1024 1024" version="1.1" xmlns="http://www.w3.org/2000/svg" p-id="4771" data-darkreader-inline-fill="" xmlns:xlink="http://www.w3.org/1999/xlink" width="200" height="200"><path d="M942.08 593.92l-107.52 322.56c-5.12 20.48-25.6 35.84-46.08 35.84H240.64c-20.48 0-40.96-15.36-46.08-35.84l-107.52-322.56c-5.12-10.24-5.12-25.6 0-35.84l133.12-445.44c5.12-20.48 25.6-35.84 46.08-35.84h491.52c20.48 0 40.96 15.36 46.08 35.84l133.12 445.44c10.24 10.24 10.24 25.6 5.12 35.84zM194.56 537.6h143.36c35.84 0 66.56 25.6 76.8 56.32l10.24 46.08h184.32l30.72-61.44c15.36-25.6 40.96-40.96 66.56-40.96h122.88l-107.52-358.4H302.08l-107.52 358.4z m624.64 102.4h-92.16l-30.72 61.44c-15.36 25.6-40.96 40.96-66.56 40.96H404.48c-35.84 0-66.56-25.6-76.8-56.32l-10.24-46.08H204.8l71.68 204.8h471.04l71.68-204.8z m25.6-81.92z" fill="#ffffff" p-id="4772" style="--darkreader-inline-fill: var(--darkreader-background-ffffff, #181a1b);" data-darkreader-inline-fill=""></path></svg>