<?xml version="1.0" standalone="no"?><!DOCTYPE svg PUBLIC "-//W3C//DTD SVG 1.1//EN" "http://www.w3.org/Graphics/SVG/1.1/DTD/svg11.dtd"><svg t="1759391964410" class="icon" viewBox="0 0 1024 1024" version="1.1" xmlns="http://www.w3.org/2000/svg" p-id="1290" xmlns:xlink="http://www.w3.org/1999/xlink" width="200" height="200"><path d="M802.432 528.213333a32 32 0 0 0-24.576 23.125334 275.2 275.2 0 0 1-504.192 66.346666 32 32 0 0 0-55.424 32 339.2 339.2 0 0 0 600.533333-25.002666l51.925334 66.986666a32 32 0 0 0 50.602666-39.253333l-87.296-112.426667-2.986666-3.370666a32 32 0 0 0-28.586667-8.362667z m-202.666667-375.765333a339.2 339.2 0 0 0-394.496 182.954667l-51.968-66.986667a32 32 0 0 0-50.602666 39.210667l87.253333 112.554666a32 32 0 0 0 56.234667-11.306666A275.2 275.2 0 0 1 752.810667 346.88a32 32 0 0 0 55.978666-30.976 338.346667 338.346667 0 0 0-208.981333-163.456z" fill="#101010" p-id="1291"></path></svg>